<svg version="1.1"
     width="1200" height="800"
     xmlns="http://www.w3.org/2000/svg"
viewBox="-20 20 840 550" style="width: 100%; max-width: 860px; height: auto;"><g><line x1="126.66666666666666" y1="268" x2="241.33333333333334" y2="96" stroke="#ef4444" stroke-width="2.2" stroke-dasharray="7 4"></line></g><g><line x1="347.5" y1="68" x2="419" y2="68" stroke="#ef4444" stroke-width="2.2" stroke-dasharray="7 4"></line></g><g><line x1="561" y1="68" x2="631" y2="68" stroke="#ef4444" stroke-width="2.2" stroke-dasharray="7 4"></line></g><g><line x1="183" y1="296" x2="342" y2="296" stroke="#475569" stroke-width="1.4"></line><g><rect x="246.9" y="287" width="31.200000000000003" height="17" rx="3" fill="white" fill-opacity="0.93"></rect><text x="262.5" y="300" text-anchor="middle" font-size="9.5" fill="#475569" font-family="'SF Mono','Menlo','Consolas',monospace">USB</text></g></g><g><line x1="397.1929824561403" y1="252" x2="280.87719298245617" y2="96" stroke="#475569" stroke-width="1.4"></line><g><rect x="294.6350877192982" y="165" width="88.80000000000001" height="17" rx="3" fill="white" fill-opacity="0.93"></rect><text x="339.03508771929825" y="178" text-anchor="middle" font-size="9.5" fill="#475569" font-family="'SF Mono','Menlo','Consolas',monospace">I²C, GPIO ×1</text></g></g><g><line x1="484.03508771929825" y1="252" x2="675.6140350877193" y2="96" stroke="#475569" stroke-width="1.4"></line><g><rect x="535.4245614035088" y="165" width="88.80000000000001" height="17" rx="3" fill="white" fill-opacity="0.93"></rect><text x="579.8245614035088" y="178" text-anchor="middle" font-size="9.5" fill="#475569" font-family="'SF Mono','Menlo','Consolas',monospace">I²C, GPIO ×1</text></g></g><g><line x1="362.8421052631579" y1="340" x2="124.73684210526315" y2="496" stroke="#475569" stroke-width="1.4"></line><g><rect x="199.38947368421051" y="409" width="88.80000000000001" height="17" rx="3" fill="white" fill-opacity="0.93"></rect><text x="243.78947368421052" y="422" text-anchor="middle" font-size="9.5" fill="#475569" font-family="'SF Mono','Menlo','Consolas',monospace">SPI, GPIO ×5</text></g></g><g><line x1="397.1929824561403" y1="340" x2="280.87719298245617" y2="496" stroke="#475569" stroke-width="1.4"></line><g><rect x="294.6350877192982" y="409" width="88.80000000000001" height="17" rx="3" fill="white" fill-opacity="0.93"></rect><text x="339.03508771929825" y="422" text-anchor="middle" font-size="9.5" fill="#475569" font-family="'SF Mono','Menlo','Consolas',monospace">I²C, GPIO ×2</text></g></g><g><line x1="427.29824561403507" y1="340" x2="417.719298245614" y2="496" stroke="#475569" stroke-width="1.4"></line><g><rect x="394.10877192982457" y="409" width="56.800000000000004" height="17" rx="3" fill="white" fill-opacity="0.93"></rect><text x="422.50877192982455" y="422" text-anchor="middle" font-size="9.5" fill="#475569" font-family="'SF Mono','Menlo','Consolas',monospace">GPIO ×3</text></g></g><g><line x1="460.10526315789474" y1="340" x2="566.8421052631579" y2="496" stroke="#475569" stroke-width="1.4"></line><g><rect x="469.0736842105264" y="409" width="88.80000000000001" height="17" rx="3" fill="white" fill-opacity="0.93"></rect><text x="513.4736842105264" y="422" text-anchor="middle" font-size="9.5" fill="#475569" font-family="'SF Mono','Menlo','Consolas',monospace">I²C, GPIO ×1</text></g></g><g><line x1="663.5" y1="524" x2="692.5" y2="524" stroke="#475569" stroke-width="1.4"></line></g><g><rect x="172.5" y="40" width="175" height="56" rx="7" fill="#fff7ed" stroke="#d97706" stroke-width="1.6"></rect><text x="260" y="65" text-anchor="middle" font-size="12.5" font-weight="600" fill="#1e293b">Battery Charger</text><text x="260" y="81" text-anchor="middle" font-size="9.5" fill="#64748b">BQ25180YBGR</text><text x="342.5" y="51" text-anchor="end" font-size="7.5" fill="#94a3b8" font-style="italic">VBUS</text></g><g><rect x="419" y="40" width="142" height="56" rx="7" fill="#fff7ed" stroke="#d97706" stroke-width="1.6"></rect><text x="490" y="73" text-anchor="middle" font-size="12.5" font-weight="600" fill="#1e293b">LiPo Battery</text><text x="556" y="51" text-anchor="end" font-size="7.5" fill="#94a3b8" font-style="italic">VBAT</text></g><g><rect x="631" y="40" width="158" height="56" rx="7" fill="#fff7ed" stroke="#d97706" stroke-width="1.6"></rect><text x="710" y="65" text-anchor="middle" font-size="12.5" font-weight="600" fill="#1e293b">Fuel Gauge</text><text x="710" y="81" text-anchor="middle" font-size="9.5" fill="#64748b">MAX17048</text><text x="784" y="51" text-anchor="end" font-size="7.5" fill="#94a3b8" font-style="italic">VBAT</text></g><g><rect x="33" y="268" width="150" height="56" rx="7" fill="#fff7ed" stroke="#d97706" stroke-width="1.6"></rect><text x="108" y="301" text-anchor="middle" font-size="12.5" font-weight="600" fill="#1e293b">USB-C + ESD</text><text x="178" y="279" text-anchor="end" font-size="7.5" fill="#94a3b8" font-style="italic">VBUS</text></g><g><rect x="342" y="252" width="176" height="88" rx="7" fill="#dbeafe" stroke="#2563eb" stroke-width="1.6"></rect><text x="430" y="293" text-anchor="middle" font-size="12.5" font-weight="600" fill="#1e293b">MCU</text><text x="430" y="309" text-anchor="middle" font-size="9.5" fill="#64748b">nRF52840</text><text x="513" y="263" text-anchor="end" font-size="7.5" fill="#94a3b8" font-style="italic">3V3</text></g><g><rect x="4.5" y="496" width="155" height="56" rx="7" fill="#ecfdf5" stroke="#059669" stroke-width="1.6"></rect><text x="82" y="521" text-anchor="middle" font-size="12.5" font-weight="600" fill="#1e293b">E-Paper Display</text><text x="82" y="537" text-anchor="middle" font-size="9.5" fill="#64748b">WSH-12561</text><text x="154.5" y="507" text-anchor="end" font-size="7.5" fill="#94a3b8" font-style="italic">3V3</text></g><g><rect x="204" y="496" width="112" height="56" rx="7" fill="#ecfdf5" stroke="#059669" stroke-width="1.6"></rect><text x="260" y="521" text-anchor="middle" font-size="12.5" font-weight="600" fill="#1e293b">IMU</text><text x="260" y="537" text-anchor="middle" font-size="9.5" fill="#64748b">BMA423</text><text x="311" y="507" text-anchor="end" font-size="7.5" fill="#94a3b8" font-style="italic">3V3</text></g><g><rect x="355" y="496" width="122" height="56" rx="7" fill="#f1f5f9" stroke="#64748b" stroke-width="1.6"></rect><text x="416" y="529" text-anchor="middle" font-size="12.5" font-weight="600" fill="#1e293b">Buttons (×3)</text></g><g><rect x="508.5" y="496" width="155" height="56" rx="7" fill="#ecfdf5" stroke="#059669" stroke-width="1.6"></rect><text x="586" y="521" text-anchor="middle" font-size="12.5" font-weight="600" fill="#1e293b">Haptics Driver</text><text x="586" y="537" text-anchor="middle" font-size="9.5" fill="#64748b">DRV2605</text><text x="658.5" y="507" text-anchor="end" font-size="7.5" fill="#94a3b8" font-style="italic">3V3</text></g><g><rect x="692.5" y="496" width="125" height="56" rx="7" fill="#f1f5f9" stroke="#64748b" stroke-width="1.6"></rect><text x="755" y="521" text-anchor="middle" font-size="12.5" font-weight="600" fill="#1e293b">DC Motor</text><text x="755" y="537" text-anchor="middle" font-size="9.5" fill="#64748b">FIT0774</text></g></svg>
